<svg width="580" height="400" xmlns="http://www.w3.org/2000/svg">
 <!-- Created with SVG Editor - http://github.com/mzalive/SVG Editor/ -->

 <g>
  <title>background</title>
  <rect x="-0.375" y="-0.375" width="582" height="402" id="canvas_background" fill="#fff"/>
  <g id="canvasGrid" display="none">
   <rect id="svg_2" width="580" height="400" x="0.625" y="0.625" stroke-width="0" fill="url(#gridpattern)"/>
  </g>
 </g>
 <g>
  <title>Layer 1</title>
  <path fill="#fff" stroke="#000" stroke-width="1.5" id="svg_1"/>
  <path stroke="#000" fill="none" stroke-width="8" id="svg_11" d="m186.790139,173.40695c26.802959,-14.1068 38.494009,-21.92889 52.19521,-31.034984c21.853803,-14.524465 35.089162,-25.685194 46.552493,-32.445676c12.510331,-7.377956 26.634484,-10.753655 98.747686,-70.534069c32.290215,-26.767949 34.160953,-23.939363 43.220565,16.931709c9.059629,40.871055 -8.314757,14.544613 -25.229621,-4.050348c-16.914881,-18.594962 37.99353,72.536391 -5.604351,35.806328c-43.597881,-36.730081 -9.672459,0.679766 -7.714161,29.681671c-14.032442,2.192472 -47.053396,-16.708176 -48.403557,-16.299374c-4.86802,1.473917 -18.819071,9.929307 -32.445642,15.517492c-25.105899,10.295778 -63.424536,50.446651 -93.104986,66.302027c-18.952163,10.124286 -28.626825,11.698641 -29.624309,12.696125c-0.997535,0.997535 0.122756,17.298298 -12.696125,53.605902c-9.262911,26.235849 -46.470035,29.857772 -62.070002,39.499085c-10.7331,6.633422 8.816388,85.27644 95.926336,80.408861c76.655743,-4.283439 123.790784,-57.302268 148.121546,-114.265229c17.886896,-41.876724 10.637746,-61.638798 12.696159,-59.248618c41.628993,48.338654 137.483851,41.006063 142.478846,-15.517475c1.777943,-20.119513 -55.016628,-26.802959 -77.587545,-59.248635l-9.048123,-12.696125l-16.003059,-1.168112"/>
  <path stroke="#000" fill="none" stroke-width="8" stroke-opacity="null" fill-opacity="null" id="svg_15" d="m384.873588,98.306845c1.446325,0 3.404407,0.743704 6.267503,1.630351c2.437869,0.754968 4.37417,1.582179 6.749658,2.853094c1.468869,0.785862 3.412617,1.544679 4.821162,2.037927c0.995952,0.348794 1.780662,1.002184 2.410558,1.222775c0.445403,0.155967 1.446388,0.407576 1.928496,0.815167l0.964232,0.407607l0.482108,0.407576l0.482108,0"/>
  <path stroke="#000" transform="rotate(1.9912992715835571 279.223358154298,240.8354187011714) " fill="none" stroke-width="8" stroke-opacity="null" fill-opacity="null" id="svg_18" d="m247.603911,246.921939c9.275022,7.535994 11.667799,8.687912 14.334169,8.695359c32.797318,0.091615 42.159258,-14.492239 48.904728,-26.086061l0,-3.478137"/>
  <path stroke="#000" fill="none" stroke-width="8" stroke-opacity="null" fill-opacity="null" id="svg_21" d="m217.397228,179.052764c0,0.654965 -0.387235,1.329031 0,5.239586c0.658137,6.646699 3.927434,13.017729 4.584621,20.958363c0.756303,9.138064 0.67259,17.228126 -1.964828,24.888069c-2.100008,6.099094 -5.239603,9.824224 -9.169293,13.753931c-3.929707,3.92969 -8.761193,7.41391 -16.373724,10.47919c-6.9271,2.789255 -13.753931,3.92969 -20.303414,5.239586l-3.92969,0l-3.274758,0l-0.654931,-0.654948"/>
  <path stroke="#000" fill="none" stroke-width="8" stroke-opacity="null" fill-opacity="null" id="svg_22" d="m136.00646,287.370923c0.627457,0 0.783382,1.301017 5.019539,3.76461c4.63417,2.695101 8.755759,3.884443 13.803721,5.019539c3.121374,0.701901 6.093696,0.011554 9.411606,-0.627408c3.080585,-0.593233 5.136252,-0.434528 6.27442,-1.254897c0.719842,-0.518853 1.254881,-1.882321 1.254881,-3.137235c0,-1.254848 0.301532,-3.788921 0,-5.646931c-0.317848,-1.958537 -2.626491,-3.571763 -3.764659,-4.392083c-0.719858,-0.518837 -1.882337,-0.627457 -3.764642,-1.254913c-1.882337,-0.62744 -3.764659,-1.254848 -6.27442,-1.882305c-2.509762,-0.627457 -5.019523,-0.627457 -7.529301,-0.627457c-3.137186,0 -6.958446,-0.593281 -10.03903,0c-3.317943,0.638962 -5.115061,1.402112 -6.27442,1.882321c-0.819784,0.339559 -1.254881,1.882354 -1.254881,2.509762c0,0.627457 -0.545488,3.218017 0,5.019539c0.65557,2.165181 3.764642,3.764675 5.019523,4.392067c1.254881,0.627457 3.764659,1.88237 6.27442,3.137235l2.509762,0.62744l2.509745,0l1.254881,0"/>
  <path stroke="#000" fill="none" stroke-width="8" stroke-opacity="null" fill-opacity="null" id="svg_24" d="m161.977986,227.93984c0.772676,0.772676 4.211366,3.43873 6.181248,5.408612c1.969883,1.969883 4.035382,4.42269 6.953904,6.953904c2.476482,2.147808 4.697973,4.103382 6.953944,4.635956c3.362965,0.793889 3.86326,2.317948 6.181228,2.317948c3.090624,0 6.181248,0 8.499236,0c3.090604,0 6.953904,-0.772676 9.271872,-1.545312c2.317988,-0.772676 4.007025,-1.307752 5.408612,-2.317968c1.772906,-1.277814 2.317968,-2.317948 2.317968,-3.090624l0,-0.772636l0,-0.772676"/>
  <path stroke="#000" fill="none" stroke-width="8" stroke-opacity="null" fill-opacity="null" id="svg_26" d="m170.297208,323.474783c1.140277,0.570109 2.654519,1.362057 4.561124,2.850664c2.620364,2.045913 6.624359,3.654646 13.683328,5.131263c6.16398,1.289376 11.979365,0.854337 18.244452,0.570153c6.290943,-0.285394 13.053133,-2.393032 19.384759,-5.701416c3.389733,-1.771195 6.480768,-3.225913 9.122204,-6.271525c1.867769,-2.153577 3.420862,-5.131233 5.701372,-7.981941l1.71046,-2.280555l1.140263,-1.710416l0,-1.140292"/>
  <path stroke="#000" fill="none" stroke-width="8" stroke-opacity="null" fill-opacity="null" id="svg_36" d="m233.179496,112.276008c-0.625021,-0.625005 -0.605709,-2.007315 -5.625041,-5.625041c-5.668796,-4.085824 -16.172499,-8.18136 -26.250224,-8.125075c-13.877157,0.077523 -31.983576,7.588034 -49.375425,19.375174c-17.697002,11.993952 -36.160763,26.967239 -43.750351,40.625345c-5.863145,10.551229 -5.625073,21.87516 -5.625073,28.750242c0,2.499986 0.199853,6.448101 6.875083,9.375068c10.14288,4.447472 26.250224,2.500018 43.750351,-3.125039l19.375174,-9.375068l8.125059,-6.250062" transform="rotate(11.415186882019043 167.8657531738281,148.81301879882818) "/>
 </g>
</svg>